<?xml version="1.0" encoding="utf-8"?>
<!-- Generator: Adobe Illustrator 17.0.0, SVG Export Plug-In . SVG Version: 6.00 Build 0)  -->
<!DOCTYPE svg PUBLIC "-//W3C//DTD SVG 1.1//EN" "http://www.w3.org/Graphics/SVG/1.1/DTD/svg11.dtd">
<svg version="1.1" id="Capa_1" xmlns="http://www.w3.org/2000/svg" xmlns:xlink="http://www.w3.org/1999/xlink" x="0px" y="0px"
	 width="50px" height="50px" viewBox="45 5 50 50" enable-background="new 45 5 50 50" xml:space="preserve">
<g>
	<g>
		<path d="M69.967,54.87c1.094,0,1.99-0.895,1.99-1.99V12.326l12.999,14.557c0.398,0.431,0.928,0.663,1.492,0.663
			c0.464,0,0.928-0.166,1.326-0.497c0.829-0.729,0.895-1.99,0.166-2.819L71.459,5.793C71.094,5.362,70.53,5.13,69.967,5.13
			c-0.166,0-0.298,0.033-0.431,0.066c-0.497,0.099-0.895,0.398-1.194,0.796L52.06,24.23c-0.729,0.829-0.663,2.089,0.166,2.819
			c0.829,0.729,2.089,0.663,2.819-0.166l12.932-14.524V52.88C67.977,53.975,68.873,54.87,69.967,54.87z"/>
	</g>
</g>
</svg>
